#!OML:ASF G:\JayActor3\Patient Classification 1\Patient 1\Session 5\male.ASF
:FULLY-SPECIFIED
:DEGREES
840
root 37.438 16.5953 -4.65506 970.497 85.1163 973.103
lowerback 0.764143 -0.796239 4.7044
upperback 2.30006 -1.05845 0.227781
thorax 1.85629 -0.436373 -2.40957
lowerneck -8.66267 -0.249062 1.64289
upperneck 12.6693 -0.785737 2.21581
head 5.24271 -0.11791 0.369382
rclavicle 2.74571e-015 -1.19271e-014
rhumerus -32.112 -2.8249 -87.4875
rradius 30.187
rwrist -0.229953
rhand -18.8359 -8.34108
rfingers 7.12502
rthumb 7.46354 -38.1894
lclavicle 2.74571e-015 -1.19271e-014
lhumerus -33.4716 8.45751 82.3152
lradius 26.3212
lwrist 17.1715
lhand -17.126 12.1381
lfingers 7.12502
lthumb 9.11376 41.9212
rfemur -8.50192 -0.740599 30.9763
rtibia 28.1225
rfoot -17.9898 -10.2754
rtoes 10.2705
lfemur -8.88579 6.22058 -11.9742
ltibia 61.0355
lfoot -1.64027 4.53585
ltoes -10.7196
841
root 37.5302 16.5771 -4.64766 971.189 85.0233 973.823
lowerback 0.793379 -0.764087 4.83265
upperback 2.32567 -1.01443 0.239755
thorax 1.86817 -0.411102 -2.46858
lowerneck -8.6835 -0.24197 1.65888
upperneck 12.6992 -0.781246 2.23186
head 5.25561 -0.113002 0.37213
rclavicle 3.10601e-015 4.37326e-015
rhumerus -31.9904 -2.69757 -87.5825
rradius 30.3282
rwrist -0.391174
rhand -18.8259 -8.37411
rfingers 7.12502
rthumb 7.47319 -38.2221
lclavicle 3.10601e-015 4.37326e-015
lhumerus -33.4405 8.27415 82.442
lradius 26.7511
lwrist 17.4083
lhand -17.1191 12.1763
lfingers 7.12502
lthumb 9.12041 41.9591
rfemur -8.22263 -0.738527 31.1494
rtibia 28.3388
rfoot -18.3103 -10.2653
rtoes 10.1985
lfemur -9.83506 5.75769 -12.0478
ltibia 61.0012
lfoot -3.30231 4.78848
ltoes -11.413
842
root 37.6221 16.5577 -4.64049 971.88 84.9182 974.541
lowerback 0.828014 -0.733058 4.97414
upperback 2.34696 -0.971467 0.25291
thorax 1.87254 -0.386355 -2.5337
lowerneck -8.70912 -0.235837 1.66791
upperneck 12.7343 -0.777877 2.25205
head 5.27096 -0.108557 0.377238
rclavicle -7.51655e-015 2.78299e-015
rhumerus -31.8831 -2.5812 -87.6807
rradius 30.4719
rwrist -0.562493
rhand -18.8334 -8.40764
rfingers 7.12502
rthumb 7.46594 -38.2559
lclavicle -7.51655e-015 2.78299e-015
lhumerus -33.4219 8.07124 82.5702
lradius 27.1853
lwrist 17.6494
lhand -17.108 12.1887
lfingers 7.12502
lthumb 9.1311 41.971
rfemur -7.95553 -0.736092 31.3353
rtibia 28.5724
rfoot -18.6404 -10.2693
rtoes 10.1169
lfemur -10.7715 5.2991 -12.1014
ltibia 60.8878
lfoot -4.84091 5.07704
ltoes -12.028
843
root 37.7139 16.5374 -4.63365 972.531 84.8113 975.216
lowerback 0.864735 -0.703893 5.11784
upperback 2.36515 -0.930712 0.265176
thorax 1.87252 -0.362813 -2.60095
lowerneck -8.72635 -0.230229 1.66478
upperneck 12.7609 -0.774559 2.28281
head 5.28231 -0.104188 0.387622
rclavicle 2.50966e-015 -3.18055e-015
rhumerus -31.7885 -2.47438 -87.7807
rradius 30.6194
rwrist -0.73432
rhand -18.8566 -8.43881
rfingers 7.12502
rthumb 7.44354 -38.2879
lclavicle 2.50966e-015 -3.18055e-015
lhumerus -33.4078 7.8595 82.6971
lradius 27.612
lwrist 17.8878
lhand -17.0941 12.1972
lfingers 7.12502
lthumb 9.14454 41.979
rfemur -7.70422 -0.740588 31.5206
rtibia 28.8244
rfoot -18.9912 -10.2638
rtoes 10.1324
lfemur -11.6903 4.84961 -12.1477
ltibia 60.6935
lfoot -6.26341 5.38983
ltoes -12.5184
844
root 37.8052 16.5166 -4.62706 973.131 84.7138 975.834
lowerback 0.905947 -0.674429 5.25182
upperback 2.37762 -0.889039 0.274294
thorax 1.86442 -0.339306 -2.66594
lowerneck -8.73059 -0.226959 1.65879
upperneck 12.7698 -0.773054 2.31085
head 5.28598 -0.101469 0.397479
rclavicle 5.45415e-015 -7.95139e-015
rhumerus -31.7089 -2.37958 -87.8788
rradius 30.7707
rwrist -0.901866
rhand -18.898 -8.45692
rfingers 7.12502
rthumb 7.40357 -38.3074
lclavicle 5.45415e-015 -7.95139e-015
lhumerus -33.4086 7.63134 82.826
lradius 28.0467
lwrist 18.1301
lhand -17.0801 12.207
lfingers 7.12502
lthumb 9.15801 41.9882
rfemur -7.47211 -0.745985 31.6941
rtibia 29.0945
rfoot -19.3556 -10.264
rtoes 10.172
lfemur -12.5937 4.41325 -12.1985
ltibia 60.4182
lfoot -7.57735 5.71557
ltoes -13.027
845
root 37.8961 16.4956 -4.62072 973.717 84.6206 976.429
lowerback 0.951189 -0.645021 5.37994
upperback 2.38453 -0.846954 0.283262
thorax 1.84859 -0.316042 -2.72775
lowerneck -8.7169 -0.22459 1.6488
upperneck 12.7562 -0.771046 2.33635
head 5.27957 -0.0994497 0.407196
rclavicle -3.37934e-015 3.57812e-015
rhumerus -31.6402 -2.28885 -87.9744
rradius 30.92
rwrist -1.06599
rhand -18.9508 -8.46319
rfingers 7.12502
rthumb 7.3526 -38.3154
lclavicle -3.37934e-015 3.57812e-015
lhumerus -33.4131 7.39836 82.9547
lradius 28.4696
lwrist 18.3701
lhand -17.0678 12.1963
lfingers 7.12502
lthumb 9.16995 41.9769
rfemur -7.25998 -0.748474 31.8626
rtibia 29.3786
rfoot -19.7311 -10.274
rtoes 10.1865
lfemur -13.486 3.99126 -12.2466
ltibia 60.0634
lfoot -8.76632 6.05113
ltoes -13.484
846
root 37.9864 16.4743 -4.61477 974.273 84.5384 976.987
lowerback 0.99865 -0.615539 5.49809
upperback 2.3877 -0.804407 0.288664
thorax 1.82792 -0.292953 -2.78766
lowerneck -8.69445 -0.222293 1.64809
upperneck 12.7255 -0.768107 2.34758
head 5.26625 -0.0979637 0.410981
rclavicle -3.47873e-015 -1.98785e-015
rhumerus -31.5741 -2.2059 -88.0669
rradius 31.0589
rwrist -1.21143
rhand -19.0075 -8.4467
rfingers 7.12502
rthumb 7.29795 -38.3008
lclavicle -3.47873e-015 -1.98785e-015
lhumerus -33.4071 7.18733 83.0731
lradius 28.8572
lwrist 18.5826
lhand -17.0623 12.1697
lfingers 7.12502
lthumb 9.17522 41.9501
rfemur -7.06002 -0.747069 32.0182
rtibia 29.6709
rfoot -20.121 -10.2865
rtoes 10.1817
lfemur -14.3666 3.58422 -12.3012
ltibia 59.6321
lfoot -9.83948 6.40048
ltoes -13.9064
847
root 38.0762 16.453 -4.6092 974.814 84.4665 977.525
lowerback 1.05335 -0.58703 5.60623
upperback 2.3889 -0.762479 0.292235
thorax 1.80132 -0.270574 -2.84382
lowerneck -8.66833 -0.220039 1.64406
upperneck 12.6804 -0.764104 2.3554
head 5.24782 -0.0967242 0.414286
rclavicle 3.19298e-015 -9.54166e-015
rhumerus -31.5088 -2.1222 -88.1567
rradius 31.1872
rwrist -1.33906
rhand -19.0683 -8.41965
rfingers 7.12502
rthumb 7.23919 -38.2758
lclavicle 3.19298e-015 -9.54166e-015
lhumerus -33.3927 6.99917 83.1832
lradius 29.2142
lwrist 18.7685
lhand -17.0627 12.1462
lfingers 7.12502
lthumb 9.17487 41.9266
rfemur -6.862 -0.738266 32.1625
rtibia 29.9605
rfoot -20.5173 -10.3084
rtoes 10.1492
lfemur -15.2293 3.19341 -12.361
ltibia 59.1275
lfoot -10.7971 6.76345
ltoes -14.3052
848
root 38.1659 16.4319 -4.60389 975.31 84.408 978.013
lowerback 1.1078 -0.560797 5.69862
upperback 2.39137 -0.723506 0.293711
thorax 1.77616 -0.249903 -2.89339
lowerneck -8.64753 -0.216103 1.64225
upperneck 12.6267 -0.757011 2.35314
head 5.22757 -0.0947875 0.41428
rclavicle -1.39149e-015 -1.35174e-014
rhumerus -31.4362 -2.03224 -88.2458
rradius 31.3009
rwrist -1.45079
rhand -19.1252 -8.3889
rfingers 7.12502
rthumb 7.18432 -38.247
lclavicle -1.39149e-015 -1.35174e-014
lhumerus -33.3615 6.84585 83.283
lradius 29.5301
lwrist 18.9202
lhand -17.0744 12.1163
lfingers 7.12502
lthumb 9.16351 41.8972
rfemur -6.66204 -0.71905 32.2927
rtibia 30.2368
rfoot -20.9097 -10.3442
rtoes 10.1006
lfemur -16.0742 2.81934 -12.4305
ltibia 58.5526
lfoot -11.6418 7.14115
ltoes -14.6008
849
root 38.2555 16.4113 -4.59892 975.794 84.3534 978.483
lowerback 1.16241 -0.537425 5.78651
upperback 2.39316 -0.688216 0.294415
thorax 1.74999 -0.231219 -2.9413
lowerneck -8.62393 -0.209372 1.64745
upperneck 12.5664 -0.745739 2.34146
head 5.20473 -0.0912961 0.410469
rclavicle 7.82715e-016 -2.78299e-015
rhumerus -31.3641 -1.93768 -88.3363
rradius 31.405
rwrist -1.53901
rhand -19.1671 -8.37347
rfingers 7.12502
rthumb 7.14388 -38.2329
lclavicle 7.82715e-016 -2.78299e-015
lhumerus -33.3232 6.71274 83.3735
lradius 29.8132
lwrist 19.0525
lhand -17.0944 12.1047
lfingers 7.12502
lthumb 9.14428 41.8865
rfemur -6.45107 -0.686963 32.4197
rtibia 30.4869
rfoot -21.2976 -10.405
rtoes 9.98254
lfemur -16.8967 2.46902 -12.4997
ltibia 57.9098
lfoot -12.3791 7.53298
ltoes -14.7726
850
root 38.3455 16.3917 -4.59413 976.236 84.3002 978.911
lowerback 1.21681 -0.516562 5.86984
upperback 2.39555 -0.656198 0.295484
thorax 1.72441 -0.21424 -2.98635
lowerneck -8.6049 -0.202468 1.65798
upperneck 12.5083 -0.73433 2.32321
head 5.1833 -0.0878802 0.403752
rclavicle 2.31087e-015 7.95139e-015
rhumerus -31.2963 -1.83648 -88.4279
rradius 31.5024
rwrist -1.61586
rhand -19.2051 -8.36402
rfingers 7.12502
rthumb 7.1072 -38.2247
lclavicle 2.31087e-015 7.95139e-015
lhumerus -33.2808 6.5871 83.4597
lradius 30.067
lwrist 19.1734
lhand -17.1292 12.0906
lfingers 7.12502
lthumb 9.11067 41.8738
rfemur -6.21812 -0.643764 32.5453
rtibia 30.697
rfoot -21.6795 -10.4877
rtoes 9.82639
lfemur -17.6899 2.14185 -12.5679
ltibia 57.2001
lfoot -13.0116 7.93577
ltoes -14.8783
